<svg xmlns="http://www.w3.org/2000/svg" xmlns:xlink="http://www.w3.org/1999/xlink" viewBox="0 0 94.36 94.03"><defs><style>.cls-1{fill:url(#linear-gradient);}</style><linearGradient id="linear-gradient" x1="9.07" y1="103.11" x2="85.29" y2="26.89" gradientUnits="userSpaceOnUse"><stop offset="0" stop-color="#0c29df"/><stop offset="1" stop-color="#0075bf"/></linearGradient></defs><g id="Layer_2" data-name="Layer 2"><g id="Layer_1-2" data-name="Layer 1"><path class="cls-1" d="M59.66,51.21a27.14,27.14,0,1,0-24.95,0A43.85,43.85,0,0,0,0,94H4A39.82,39.82,0,0,1,43.77,54.26h6.82A39.82,39.82,0,0,1,90.36,94h4A43.85,43.85,0,0,0,59.66,51.21ZM24.05,27.13A23.13,23.13,0,1,1,47.18,50.26,23.15,23.15,0,0,1,24.05,27.13Z"/></g></g></svg>