<svg xmlns="http://www.w3.org/2000/svg" viewBox="0 0 229.32 229.32"><defs><style>.cls-1{fill:#515051;}</style></defs><title>Asset 1</title><g id="Layer_2" data-name="Layer 2"><g id="Layer_1-2" data-name="Layer 1"><path class="cls-1" d="M136.9,202.34H93.58a4.2,4.2,0,0,1-4.26-4.15V180.38a4.2,4.2,0,0,1,4.26-4.15H136.9a4.21,4.21,0,0,1,4.27,4.15v17.81A4.21,4.21,0,0,1,136.9,202.34Z"/><path class="cls-1" d="M114.8,106.88a7.86,7.86,0,1,0,7.86,7.86A7.87,7.87,0,0,0,114.8,106.88ZM154,75a56,56,0,0,0-65.48-10.1l24.09,36.12A13.86,13.86,0,0,1,125.15,124l6.1,12-8.92,4.52-6.08-12a13.84,13.84,0,0,1-12-22.75L86.71,65.94a56.09,56.09,0,0,0,8.91,101.58h37.47A56.06,56.06,0,0,0,154,75ZM114.8,106.88a7.86,7.86,0,1,0,7.86,7.86A7.87,7.87,0,0,0,114.8,106.88ZM154,75a56,56,0,0,0-65.48-10.1l24.09,36.12A13.86,13.86,0,0,1,125.15,124l6.1,12-8.92,4.52-6.08-12a13.84,13.84,0,0,1-12-22.75L86.71,65.94a56.09,56.09,0,0,0,8.91,101.58h37.47A56.06,56.06,0,0,0,154,75Zm-31.38,39.71a7.86,7.86,0,1,0-7.86,7.86A7.86,7.86,0,0,0,122.66,114.74ZM114.4,44A70.65,70.65,0,0,0,96.26,182.94l1.51-.9.87,1.48a68.7,68.7,0,0,0,6.93,1.22l-1.41-5.33,1.94-.52,1.61,6.08c1.38.14,2.78.23,4.19.27v-8.12h5v8.12c1.39,0,2.77-.13,4.13-.26l1.71-6.09,1.93.54-1.49,5.32a71.1,71.1,0,0,0,7-1.24l.83-1.44,1.49.86A70.64,70.64,0,0,0,114.4,44ZM145,167.52H133.09A56.06,56.06,0,1,0,88.56,64.93l24.09,36.12A13.86,13.86,0,0,1,125.15,124l6.1,12-8.92,4.52-6.08-12a13.84,13.84,0,0,1-12-22.75L86.71,65.94a56.09,56.09,0,0,0,8.91,101.58H83.78a61.15,61.15,0,0,1-30.44-52.85A61.1,61.1,0,0,1,84.69,61.34L81.8,54.79l4,6A61,61,0,0,1,145,167.52ZM114.8,122.6a7.86,7.86,0,1,0-7.86-7.86A7.87,7.87,0,0,0,114.8,122.6Zm0-15.72a7.86,7.86,0,1,0,7.86,7.86A7.87,7.87,0,0,0,114.8,106.88ZM154,75a56,56,0,0,0-65.48-10.1l24.09,36.12A13.86,13.86,0,0,1,125.15,124l6.1,12-8.92,4.52-6.08-12a13.84,13.84,0,0,1-12-22.75L86.71,65.94a56.09,56.09,0,0,0,8.91,101.58h37.47A56.06,56.06,0,0,0,154,75ZM114.8,106.88a7.86,7.86,0,1,0,7.86,7.86A7.87,7.87,0,0,0,114.8,106.88ZM154,75a56,56,0,0,0-65.48-10.1l24.09,36.12A13.86,13.86,0,0,1,125.15,124l6.1,12-8.92,4.52-6.08-12a13.84,13.84,0,0,1-12-22.75L86.71,65.94a56.09,56.09,0,0,0,8.91,101.58h37.47A56.06,56.06,0,0,0,154,75Z"/><rect class="cls-1" x="7.71" y="110.53" width="24.47" height="10"/><rect class="cls-1" x="198.03" y="110.53" width="24.47" height="10"/><rect class="cls-1" x="42.82" y="36.01" width="10" height="24.47" transform="translate(-20.1 47.94) rotate(-45)"/><rect class="cls-1" x="110.11" y="8.13" width="10" height="24.47"/><rect class="cls-1" x="170.16" y="43.24" width="24.47" height="10" transform="translate(19.31 143.1) rotate(-45)"/><rect class="cls-1" x="186.25" y="67.17" width="24.47" height="5" transform="translate(-9.01 104.27) rotate(-28.81)"/><rect class="cls-1" x="21.22" y="76.76" width="5" height="24.47" transform="translate(-68.35 86.96) rotate(-73.81)"/><rect class="cls-1" x="203.99" y="129.83" width="5" height="24.47" transform="translate(12.48 300.75) rotate(-73.81)"/><rect class="cls-1" x="66.75" y="19.91" width="5" height="24.47" transform="translate(-6.92 37.35) rotate(-28.81)"/><rect class="cls-1" x="129.41" y="21.64" width="24.47" height="5" transform="translate(78.95 153.43) rotate(-73.81)"/><rect class="cls-1" x="10.74" y="136.83" width="24.47" height="5" transform="translate(-34.13 10.18) rotate(-14.49)"/><rect class="cls-1" x="195.01" y="89.22" width="24.47" height="5" transform="translate(-16.36 54.77) rotate(-14.49)"/><rect class="cls-1" x="30.63" y="54.97" width="5" height="24.47" transform="translate(-41.59 61.62) rotate(-59.48)"/><rect class="cls-1" x="88.8" y="11.16" width="5" height="24.47" transform="translate(-2.95 23.58) rotate(-14.48)"/><rect class="cls-1" x="151.19" y="31.05" width="24.47" height="5" transform="translate(51.54 157.3) rotate(-59.48)"/><path class="cls-1" d="M114.66,0A114.66,114.66,0,1,0,229.32,114.66,114.79,114.79,0,0,0,114.66,0Zm101,142.12q-.65,2.41-1.43,4.79a104.69,104.69,0,0,1-200-2.74c-.47-1.59-.91-3.2-1.29-4.83a102.31,102.31,0,0,1-2.78-18.81c-.12-1.94-.17-3.9-.17-5.87,0-1.38,0-2.76.09-4.13a103.43,103.43,0,0,1,3.2-22c.42-1.61.87-3.22,1.37-4.8A103.2,103.2,0,0,1,23,64.15q1.21-2.19,2.52-4.32A105.48,105.48,0,0,1,37,44.53c2.23-2.48,4.59-4.84,7.05-7.09A104.5,104.5,0,0,1,62,24.22c1.44-.85,2.9-1.65,4.38-2.42a102.77,102.77,0,0,1,19.85-7.88c1.6-.46,3.22-.87,4.85-1.25a103.26,103.26,0,0,1,19-2.56c1.51-.08,3-.11,4.55-.11,1.83,0,3.64.05,5.45.14a104.08,104.08,0,0,1,22,3.51q2.41.64,4.79,1.43a103.15,103.15,0,0,1,19.47,8.6q2.17,1.23,4.29,2.58a104.81,104.81,0,0,1,15.06,11.61q3.67,3.39,7,7.13a105.15,105.15,0,0,1,12.9,17.9q1.25,2.17,2.38,4.41A103.69,103.69,0,0,1,215.6,87c.44,1.6.85,3.22,1.2,4.85a102.77,102.77,0,0,1,2.43,18.7c.06,1.37.09,2.75.09,4.13,0,2,0,3.93-.17,5.87A103.86,103.86,0,0,1,215.66,142.12Z"/></g></g></svg>