<svg xmlns="http://www.w3.org/2000/svg" viewBox="0 0 150.77 218.79"><defs><style>.cls-1{fill:#f4c790;}.cls-2{fill:#edb06e;}.cls-3{fill:#732c2b;}</style></defs><g id="Layer_2" data-name="Layer 2"><g id="Layer_1-2" data-name="Layer 1"><path class="cls-1" d="M113,190.27A103.44,103.44,0,0,1,139.68,10.46a103.45,103.45,0,1,0,5.15,196.09A103.16,103.16,0,0,1,113,190.27Z"/><path class="cls-2" d="M50.41,194.38l1.8,1.22.86.57c.64.41,1.28.82,1.92,1.21l.68.43c.87.52,1.74,1,2.61,1.54l.48.26c.72.41,1.45.81,2.18,1.19l.85.45,1.91,1,.84.41q1.15.56,2.31,1.08l.4.18c.92.41,1.85.8,2.77,1.19l.64.25,2.16.85.83.31,2.13.75.7.24q2.85,1,5.73,1.74l.66.17c.76.2,1.51.39,2.27.57l.74.18c.82.19,1.65.37,2.47.54l.41.09,3,.57h.07c1,.16,1.9.3,2.85.44l.6.08,2.46.31.55.06c2,.21,4,.37,6.07.46h.19l2.79.09h3.48q3.09-.06,6.17-.28l.21,0c.94-.07,1.88-.16,2.82-.26l.34,0c3.06-.33,6.1-.8,9.12-1.39l.22-.05c1-.19,1.91-.39,2.86-.61l.17,0c3-.7,6-1.54,9-2.51l.22-.07c1-.32,1.92-.66,2.88-1h0a103.7,103.7,0,0,1-43-26,103.44,103.44,0,0,1-95.92-73,102.85,102.85,0,0,0,.82,14.89v.09c.12,1,.26,1.94.41,2.91h0q.69,4.42,1.77,8.78v0c.22.92.46,1.83.71,2.74,0,.09.05.18.08.27.24.87.5,1.74.76,2.61l.06.19q1.3,4.21,3,8.3a3.45,3.45,0,0,0,.14.34c.31.77.64,1.54,1,2.3.08.16.15.33.22.49.33.75.67,1.49,1,2.23.07.13.13.27.19.4.85,1.76,1.74,3.5,2.69,5.22a1.09,1.09,0,0,0,.08.15c.43.78.87,1.54,1.32,2.31.11.19.23.38.34.58.38.63.76,1.25,1.15,1.87.13.22.27.44.41.66.4.62.8,1.24,1.21,1.85l.38.57c.52.77,1.05,1.54,1.59,2.29l0,.06c.57.79,1.16,1.58,1.75,2.36l.36.47c.47.6.93,1.19,1.41,1.78.19.24.38.47.58.7.42.52.84,1,1.28,1.53l.63.74c.45.51.9,1,1.36,1.52.2.22.39.44.59.65.61.66,1.23,1.32,1.86,2l.13.14c.68.69,1.37,1.38,2.07,2.06l.62.58c.5.48,1,1,1.52,1.42l.78.71,1.45,1.27.81.7,1.57,1.3.73.59c.78.62,1.56,1.23,2.35,1.83s1.66,1.22,2.5,1.82Z"/><path class="cls-3" d="M43.56,196.77a109.4,109.4,0,0,1,97.86-192A5.94,5.94,0,0,1,141.71,16a97.54,97.54,0,0,0,4.86,184.82,5.94,5.94,0,0,1,.29,11.27A109.08,109.08,0,0,1,43.56,196.77ZM121,12.57a97.51,97.51,0,1,0,5.12,192.86A110.68,110.68,0,0,1,109.38,195,109.41,109.41,0,0,1,121,12.57Z"/></g></g></svg>