<svg xmlns="http://www.w3.org/2000/svg" viewBox="0 0 62 62.14"><defs><style>.cls-1{fill:#e6e9ed;}.cls-2{fill:#969faa;}.cls-3{fill:#69d6f4;}.cls-4{fill:#fcd770;}.cls-5{fill:#aab2bd;}</style></defs><title>GenerateBillAsset 1</title><g id="Layer_2" data-name="Layer 2"><g id="Layer_1-2" data-name="Layer 1"><path class="cls-1" d="M23,45H5a4,4,0,0,1-2-.54V59l3.66,2,3.67-2L14,61l3.67-2,3.67,2L25,59V44.46A4,4,0,0,1,23,45Z"/><path class="cls-2" d="M27,5V9H1V5A4,4,0,0,1,5,1H23A4,4,0,0,1,27,5Z"/><path class="cls-2" d="M27,37v4a4,4,0,0,1-4,4H5a4,4,0,0,1-4-4V37Z"/><path class="cls-3" d="M27,27V37H1V9H27V27Zm-4,6V13H5V33H23Z"/><polygon class="cls-4" points="14 13 5 13 5 33 14 33 23 33 23 13 14 13"/><path class="cls-1" d="M43,5a2,2,0,0,1,2,2,2,2,0,0,1-2,2H33a2,2,0,0,1-2-2,2,2,0,0,1,2-2Z"/><rect class="cls-5" x="35" y="9" width="6" height="8"/><path class="cls-1" d="M43,19v6a2,2,0,0,1-2,2H27V17H41A2,2,0,0,1,43,19Z"/><path class="cls-1" d="M57,25v6H51V26a1,1,0,0,0-1-1H43V19h8A6,6,0,0,1,57,25Z"/><path class="cls-5" d="M61,32v2a1,1,0,0,1-1,1H48a1,1,0,0,1-1-1V32a1,1,0,0,1,1-1H60A1,1,0,0,1,61,32Z"/><path class="cls-3" d="M59.91,50.29A7,7,0,0,1,54,61H54a7,7,0,0,1-5.88-10.71L54,41Z"/><path d="M60,36H48a2,2,0,0,1-2-2V32a2,2,0,0,1,2-2H60a2,2,0,0,1,2,2v2A2,2,0,0,1,60,36ZM48,32v2H60V32Z"/><path d="M52,31H50V26H43V24h7a2,2,0,0,1,2,2Z"/><path d="M58,31H56V25a5,5,0,0,0-5-5H43V18h8a7,7,0,0,1,7,7Z"/><path d="M23,46H5a5,5,0,0,1-5-5V5A5,5,0,0,1,5,0H23a5,5,0,0,1,5,5V16H41a3,3,0,0,1,3,3v6a3,3,0,0,1-3,3H28V41A5,5,0,0,1,23,46ZM5,2A3,3,0,0,0,2,5V41a3,3,0,0,0,3,3H23a3,3,0,0,0,3-3V20h2v6H41a1,1,0,0,0,1-1V19a1,1,0,0,0-1-1H26V5a3,3,0,0,0-3-3Z"/><rect x="11" y="4" width="6" height="2"/><rect x="12" y="40" width="4" height="2"/><rect x="1" y="8" width="26" height="2"/><rect x="1" y="36" width="26" height="2"/><path d="M24,34H4V12H24ZM6,32H22V14H6Z"/><rect x="19" y="4" width="2" height="2"/><rect x="7" y="4" width="2" height="2"/><path d="M14,28a3,3,0,0,1-3-3h2a1,1,0,1,0,1-1,3,3,0,1,1,3-3H15a1,1,0,1,0-1,1,3,3,0,0,1,0,6Z"/><rect x="13" y="16" width="2" height="3"/><rect x="13" y="27" width="2" height="3"/><polygon points="6.67 62.14 2 59.59 2 44.46 4 44.46 4 58.41 6.67 59.86 10.33 57.86 13.99 59.86 17.66 57.86 21.33 59.86 24 58.41 24 44.46 26 44.46 26 59.59 21.33 62.14 17.66 60.14 13.99 62.14 10.33 60.14 6.67 62.14"/><rect x="6" y="48" width="16" height="2"/><rect x="6" y="52" width="16" height="2"/><path d="M54,58H54a4,4,0,0,1-4-4,3.92,3.92,0,0,1,.62-2.13l2.54-4L54.84,49l-2.53,4A2,2,0,0,0,54,56Z"/><path d="M54,62a8,8,0,0,1-8-8,7.92,7.92,0,0,1,1.25-4.28L54,39.14l6.75,10.61A8,8,0,0,1,54,62Zm0-19.14-5.07,8a6,6,0,1,0,10.14,0Z"/><rect x="34" y="9" width="2" height="8"/><rect x="40" y="9" width="2" height="8"/><path d="M43,10H33a3,3,0,0,1,0-6H43a3,3,0,0,1,0,6ZM33,6a1,1,0,0,0,0,2H43a1,1,0,0,0,0-2Z"/></g></g></svg>