<svg xmlns="http://www.w3.org/2000/svg" viewBox="0 0 282.58 282.58"><defs><style>.cls-1{fill:#ec7863;}.cls-2{fill:#732c2b;}.cls-3{fill:#de4d2e;}.cls-4{fill:#fec256;}</style></defs><g id="Layer_2" data-name="Layer 2"><g id="Layer_1-2" data-name="Layer 1"><path class="cls-1" d="M266.53,200.09l-56.32-14.3a25.09,25.09,0,0,0-31,28.21l9,57.42-29.74-49.93a25.08,25.08,0,0,0-41.83-1.93l-34.2,47,14.29-56.32a25.08,25.08,0,0,0-28.21-31l-57.42,9L61.1,158.53A25.09,25.09,0,0,0,63,116.7l-47-34.2L72.37,96.79a25.09,25.09,0,0,0,31-28.21l-9-57.42L124.05,61.1A25.09,25.09,0,0,0,165.89,63l34.2-47L185.8,72.37a25.09,25.09,0,0,0,28.2,31l57.42-9-49.93,29.74a25.09,25.09,0,0,0-1.93,41.84Z"/><path class="cls-2" d="M188.27,275.58a4.15,4.15,0,0,1-3.57-2L155,223.62a20.93,20.93,0,0,0-34.9-1.61l-34.2,47a4.17,4.17,0,0,1-7.4-3.48l14.3-56.31a20.93,20.93,0,0,0-23.53-25.82l-57.42,9A4.16,4.16,0,0,1,9,184.7L59,155a20.94,20.94,0,0,0,1.61-34.9l-47-34.2a4.17,4.17,0,0,1,3.48-7.4L73.4,92.75A20.91,20.91,0,0,0,99.21,69.23l-9-57.42A4.16,4.16,0,0,1,97.88,9L127.63,59a20.93,20.93,0,0,0,34.89,1.61l34.2-47a4.17,4.17,0,0,1,7.4,3.48L189.83,73.4a20.91,20.91,0,0,0,23.53,25.81l57.42-9a4.16,4.16,0,0,1,2.77,7.68l-49.93,29.75A20.92,20.92,0,0,0,222,162.52l47,34.2a4.16,4.16,0,0,1-3.47,7.4l-56.32-14.29a20.92,20.92,0,0,0-25.82,23.53l9,57.42a4.16,4.16,0,0,1-2.69,4.56A4.41,4.41,0,0,1,188.27,275.58ZM137,205.08c.46,0,.91,0,1.36,0a29.18,29.18,0,0,1,23.79,14.25l18.71,31.42-5.67-36.13a29.24,29.24,0,0,1,36.09-32.89l35.39,9-29.52-21.49a29.25,29.25,0,0,1,2.25-48.77l31.42-18.72-36.13,5.68a29.25,29.25,0,0,1-32.89-36.09l9-35.4L169.25,65.47a29.24,29.24,0,0,1-48.77-2.24L101.76,31.81l5.68,36.12a29.25,29.25,0,0,1-36.09,32.89L36,91.84l29.52,21.49a29.26,29.26,0,0,1-2.25,48.78L31.81,180.82l36.13-5.67a29.24,29.24,0,0,1,32.88,36.08l-9,35.4,21.49-29.52A29.18,29.18,0,0,1,137,205.08Z"/><path class="cls-3" d="M276.64,141.29l-55.81,10.76a24.54,24.54,0,0,0-15.69,37.85L237,237l-47.1-31.86a24.54,24.54,0,0,0-37.85,15.69l-10.76,55.81-10.76-55.81a24.53,24.53,0,0,0-37.84-15.69L45.59,237l31.85-47.1a24.54,24.54,0,0,0-15.68-37.85L5.94,141.29l55.82-10.76A24.54,24.54,0,0,0,77.44,92.69L45.59,45.59l47.1,31.85a24.53,24.53,0,0,0,37.84-15.68L141.29,5.94l10.76,55.82A24.54,24.54,0,0,0,189.9,77.44L237,45.59l-31.86,47.1a24.54,24.54,0,0,0,15.69,37.84Z"/><path class="cls-2" d="M141.29,282.58a5.93,5.93,0,0,1-5.83-4.82L124.7,222A18.6,18.6,0,0,0,96,210.07l-47.1,31.85a5.94,5.94,0,0,1-8.26-8.25l31.86-47.1a18.6,18.6,0,0,0-11.89-28.68L4.82,147.13a5.95,5.95,0,0,1,0-11.68L60.63,124.7A18.61,18.61,0,0,0,72.52,96L40.66,48.92a5.95,5.95,0,0,1,8.26-8.26L96,72.52A18.61,18.61,0,0,0,124.7,60.63L135.46,4.82a5.94,5.94,0,0,1,11.67,0l10.76,55.81a18.6,18.6,0,0,0,28.68,11.89l47.1-31.86a5.94,5.94,0,0,1,8.25,8.26L210.07,96A18.6,18.6,0,0,0,222,124.7l55.81,10.75a5.95,5.95,0,0,1,0,11.68L222,157.89a18.59,18.59,0,0,0-11.88,28.68l31.85,47.1a5.94,5.94,0,0,1-8.25,8.25l-47.1-31.85A18.59,18.59,0,0,0,157.89,222l-10.76,55.81A6,6,0,0,1,141.29,282.58ZM106.42,195a30.54,30.54,0,0,1,30,24.73l4.92,25.53,4.92-25.53a30.49,30.49,0,0,1,47-19.48l21.59,14.6-14.6-21.59a30.49,30.49,0,0,1,19.48-47l25.53-4.92-25.53-4.92a30.48,30.48,0,0,1-19.48-47l14.61-21.6-21.6,14.61a30.49,30.49,0,0,1-47-19.49l-4.92-25.53-4.92,25.53a30.47,30.47,0,0,1-47,19.48l-21.6-14.6,14.61,21.6a30.48,30.48,0,0,1-19.49,47l-25.53,4.92,25.53,4.92a30.49,30.49,0,0,1,19.49,47L67.76,214.82l21.6-14.6A30.42,30.42,0,0,1,106.42,195Z"/><circle class="cls-4" cx="141.29" cy="141.29" r="44.12" transform="translate(-43.31 64.83) rotate(-22.5)"/><path class="cls-2" d="M141.29,189.57a48.28,48.28,0,1,1,48.28-48.28A48.33,48.33,0,0,1,141.29,189.57Zm0-88.24a40,40,0,1,0,40,40A40,40,0,0,0,141.29,101.33Z"/></g></g></svg>