<svg xmlns="http://www.w3.org/2000/svg" viewBox="0 0 219.72 272.84"><defs><style>.cls-1{fill:#46c1be;}.cls-2{fill:#0b0609;}.cls-3{fill:#f05775;}</style></defs><title>LocationAsset 1</title><g id="Layer_2" data-name="Layer 2"><g id="Layer_1-2" data-name="Layer 1"><g id="_Group_" data-name="&lt;Group&gt;"><g id="_Group_2" data-name="&lt;Group&gt;"><polygon id="_Path_" data-name="&lt;Path&gt;" class="cls-1" points="214.1 267.22 5.62 267.22 45.57 169.63 174.15 169.63 214.1 267.22"/></g><g id="_Group_3" data-name="&lt;Group&gt;"><path id="_Compound_Path_" data-name="&lt;Compound Path&gt;" class="cls-2" d="M214.1,272.84H5.62a5.62,5.62,0,0,1-5.2-7.75l39.95-97.58a5.61,5.61,0,0,1,5.2-3.49H174.14a5.59,5.59,0,0,1,5.2,3.49l40,97.58a5.63,5.63,0,0,1-5.2,7.75ZM14,261.6H205.72l-35.35-86.35h-121Z"/></g><g id="_Group_4" data-name="&lt;Group&gt;"><g id="_Group_5" data-name="&lt;Group&gt;"><path class="cls-3" d="M109.86,5.62A72.16,72.16,0,0,0,37.7,77.78c0,58.36,72.16,129.45,72.16,129.45S182,138.26,182,77.78A72.15,72.15,0,0,0,109.86,5.62Zm0,98.33a34.67,34.67,0,1,1,34.66-34.66A34.66,34.66,0,0,1,109.86,104Z"/></g></g><g id="_Group_6" data-name="&lt;Group&gt;"><path id="_Compound_Path_2" data-name="&lt;Compound Path&gt;" class="cls-2" d="M109.8,215.06l-3.89-3.82c-3-3-73.83-73.44-73.83-133.46a77.78,77.78,0,1,1,155.55,0c0,62.17-70.87,130.63-73.89,133.51Zm.06-203.82A66.62,66.62,0,0,0,43.32,77.78c0,47.66,51.81,105.81,66.59,121.44,14.84-15.29,66.49-72.08,66.49-121.44A66.62,66.62,0,0,0,109.86,11.24Zm0,98.33a40.29,40.29,0,1,1,40.28-40.28A40.33,40.33,0,0,1,109.86,109.57Zm0-69.33a29,29,0,1,0,29,29.05A29.08,29.08,0,0,0,109.86,40.24Z"/></g></g></g></g></svg>