<svg xmlns="http://www.w3.org/2000/svg" xmlns:xlink="http://www.w3.org/1999/xlink" viewBox="0 0 416.83 533.08"><defs><style>.cls-1{fill:url(#linear-gradient);}.cls-2{fill:url(#linear-gradient-2);}</style><linearGradient id="linear-gradient" x1="47.14" y1="463.43" x2="369.98" y2="140.59" gradientUnits="userSpaceOnUse"><stop offset="0" stop-color="#2a82ff"/><stop offset="0.24" stop-color="#2376fa"/><stop offset="0.66" stop-color="#1156ec"/><stop offset="1" stop-color="#0038df"/></linearGradient><linearGradient id="linear-gradient-2" x1="186.23" y1="531.11" x2="234.06" y2="483.28" xlink:href="#linear-gradient"/></defs><g id="Layer_2" data-name="Layer 2"><g id="Layer_1-2" data-name="Layer 1"><path class="cls-1" d="M410.83,381.71a61.61,61.61,0,0,0-4.27-6.56c-6.3-8.53-37.87-53.82-40.93-108.49-.1-3.38-1.8-47.14-21-91.55-21.2-49.06-55.52-79.63-100.36-90A50,50,0,1,0,173,85C128,95.26,93.46,125.87,72.19,175.11c-19.2,44.41-20.89,88.17-21,91.55-3,54.67-34.62,100-40.92,108.49A60.1,60.1,0,0,0,6,381.71C-.34,393-1.66,403.85,2.06,413.85,8.09,430,25.92,438.57,36,442.23c4.69,1.7,8.23,3.1,11.51,4.55,48.15,21.34,142,25.25,145.92,25.41h29.95c4-.16,97.77-4.07,145.92-25.41,3.27-1.45,6.82-2.85,11.51-4.55,10.09-3.66,27.92-12.21,33.94-28.38C418.49,403.85,417.17,393,410.83,381.71ZM208.71,18.84A31.19,31.19,0,1,1,177.52,50,31.22,31.22,0,0,1,208.71,18.84Zm188.4,388.43c-3.51,9.41-17.05,15.19-22.71,17.24-5,1.83-9.09,3.43-12.72,5-43.94,19.47-134.27,23.6-138.86,23.8H194c-4.59-.2-94.93-4.33-138.86-23.8-3.64-1.61-7.68-3.21-12.72-5-5.66-2.05-19.2-7.83-22.71-17.24-1.73-4.64-.84-10,2.73-16.37a42.51,42.51,0,0,1,3-4.55c6.87-9.29,41.29-58.69,44.59-118.77,0-.09,0-.18,0-.27,0-.42,1.33-42.77,19.45-84.73,23.67-54.76,63.68-82.53,118.93-82.53,55.09,0,95,27.61,118.73,82.07,18.25,41.95,19.65,84.77,19.66,85.19,0,.09,0,.18,0,.27,3.31,60.08,37.73,109.48,44.59,118.77a42.7,42.7,0,0,1,3,4.55h0C397.94,397.28,398.83,402.63,397.11,407.27Z"/><path class="cls-2" d="M208.47,533.05l1.84,0c14.43,0,28.21-6.47,41-19.24A9.43,9.43,0,0,0,238,500.51c-9.41,9.42-19.07,14-28.64,13.71-15.14-.5-26.31-13-26.51-13.22a9.42,9.42,0,0,0-14.27,12.31C169.21,514.08,185,532.15,208.47,533.05Z"/></g></g></svg>