<svg xmlns="http://www.w3.org/2000/svg" viewBox="0 0 267.14 398.81"><defs><style>.cls-1{fill:#0d7891;}.cls-2{fill:#57caea;}</style></defs><title>WaterDropletAsset 1</title><g id="Layer_2" data-name="Layer 2"><g id="Layer_3" data-name="Layer 3"><path id="_Compound_Path_" data-name="&lt;Compound Path&gt;" class="cls-1" d="M256,200.55c-12.37-36-33.45-69.92-54.8-99.17C195.2,93.13,133.12.23,133.57,0c.45.23-61.63,93.13-67.65,101.38-21.35,29.25-42.43,63.21-54.81,99.17-11.23,32.66-15.29,67-5.84,100.88C23,365,90.36,407.92,155.48,397.16c49.87-8.23,92.85-47.1,106.39-95.73C271.32,267.51,267.26,233.21,256,200.55Zm-15.8,94.85c-11.17,40.11-47.52,72.84-88.4,79.58a101.35,101.35,0,0,1-16.55,1.36h0c-48.92,0-95.5-34.8-108.35-80.94-7.43-26.67-5.65-55.3,5.45-87.54,9.8-28.5,26.72-59,51.7-93.24.43-.57,28.71-41.82,49.49-73.39,20.78,31.56,49.08,72.82,49.51,73.4,25,34.24,41.9,64.73,51.7,93.23C245.86,240.1,247.65,268.73,240.22,295.4Z"/><path id="_Path_" data-name="&lt;Path&gt;" class="cls-2" d="M225.05,306.91c-9.58,34.41-40.76,62.48-75.82,68.27a88.42,88.42,0,0,1-14.2,1.16h0c-42,0-81.91-29.85-92.93-69.43-6.37-22.87-4.84-47.44,4.67-75.09,8.41-24.44,22.92-50.6,44.35-80,.37-.5,24.63-35.87,42.45-62.95,17.82,27.07,42.1,62.46,42.47,62.95,21.43,29.37,35.94,55.53,44.35,80C229.89,259.47,231.42,284,225.05,306.91Z"/></g></g></svg>