<svg xmlns="http://www.w3.org/2000/svg" xmlns:xlink="http://www.w3.org/1999/xlink" viewBox="0 0 229.32 229.32"><defs><style>.cls-1{fill:url(#linear-gradient);}.cls-2{fill:url(#linear-gradient-2);}.cls-3{fill:url(#linear-gradient-3);}.cls-4{fill:url(#linear-gradient-4);}.cls-5{fill:url(#linear-gradient-5);}.cls-6{fill:url(#linear-gradient-6);}.cls-7{fill:url(#linear-gradient-7);}.cls-8{fill:url(#linear-gradient-8);}.cls-9{fill:url(#linear-gradient-9);}.cls-10{fill:url(#linear-gradient-10);}.cls-11{fill:url(#linear-gradient-11);}.cls-12{fill:url(#linear-gradient-12);}.cls-13{fill:url(#linear-gradient-13);}.cls-14{fill:url(#linear-gradient-14);}.cls-15{fill:url(#linear-gradient-15);}.cls-16{fill:url(#linear-gradient-16);}.cls-17{fill:url(#linear-gradient-17);}</style><linearGradient id="linear-gradient" x1="43.77" y1="114.63" x2="185.03" y2="114.63" gradientUnits="userSpaceOnUse"><stop offset="0" stop-color="#3953a4"/><stop offset="0.04" stop-color="#3c5fac"/><stop offset="0.12" stop-color="#4172b9"/><stop offset="0.2" stop-color="#447dc0"/><stop offset="0.28" stop-color="#4581c3"/><stop offset="0.67" stop-color="#269bd1"/><stop offset="0.89" stop-color="#67c6b9"/><stop offset="1" stop-color="#6dc5a4"/></linearGradient><linearGradient id="linear-gradient-2" x1="7.71" y1="115.53" x2="32.18" y2="115.53" xlink:href="#linear-gradient"/><linearGradient id="linear-gradient-3" x1="198.03" y1="115.53" x2="222.5" y2="115.53" xlink:href="#linear-gradient"/><linearGradient id="linear-gradient-4" x1="35.63" y1="48.24" x2="60" y2="48.24" gradientTransform="translate(48.12 -19.68) rotate(45)" xlink:href="#linear-gradient"/><linearGradient id="linear-gradient-5" x1="110.11" y1="20.37" x2="120.11" y2="20.37" xlink:href="#linear-gradient"/><linearGradient id="linear-gradient-6" x1="170.21" y1="48.24" x2="194.58" y2="48.24" gradientTransform="translate(87.53 -114.84) rotate(45)" xlink:href="#linear-gradient"/><linearGradient id="linear-gradient-7" x1="186.56" y1="69.67" x2="210.41" y2="69.67" gradientTransform="translate(58.14 -87.02) rotate(28.81)" xlink:href="#linear-gradient"/><linearGradient id="linear-gradient-8" x1="11.28" y1="88.99" x2="36.17" y2="88.99" gradientTransform="translate(102.57 41.4) rotate(73.81)" xlink:href="#linear-gradient"/><linearGradient id="linear-gradient-9" x1="194.05" y1="142.06" x2="218.94" y2="142.06" gradientTransform="translate(285.34 -95.85) rotate(73.81)" xlink:href="#linear-gradient"/><linearGradient id="linear-gradient-10" x1="61.17" y1="32.14" x2="77.34" y2="32.14" gradientTransform="translate(24.06 -29.39) rotate(28.81)" xlink:href="#linear-gradient"/><linearGradient id="linear-gradient-11" x1="135.83" y1="24.14" x2="147.45" y2="24.14" gradientTransform="translate(125.32 -118.61) rotate(73.81)" xlink:href="#linear-gradient"/><linearGradient id="linear-gradient-12" x1="10.5" y1="139.33" x2="35.44" y2="139.33" gradientTransform="translate(35.59 -1.32) rotate(14.49)" xlink:href="#linear-gradient"/><linearGradient id="linear-gradient-13" x1="194.77" y1="91.72" x2="219.71" y2="91.72" gradientTransform="translate(29.54 -48.94) rotate(14.49)" xlink:href="#linear-gradient"/><linearGradient id="linear-gradient-14" x1="21.32" y1="67.21" x2="44.94" y2="67.21" gradientTransform="translate(74.21 4.54) rotate(59.48)" xlink:href="#linear-gradient"/><linearGradient id="linear-gradient-15" x1="85.82" y1="23.39" x2="96.78" y2="23.39" gradientTransform="translate(8.75 -22.09) rotate(14.48)" xlink:href="#linear-gradient"/><linearGradient id="linear-gradient-16" x1="155.06" y1="33.55" x2="171.79" y2="33.55" gradientTransform="translate(109.34 -124.27) rotate(59.48)" xlink:href="#linear-gradient"/><linearGradient id="linear-gradient-17" x1="0" y1="114.66" x2="229.32" y2="114.66" xlink:href="#linear-gradient"/></defs><title>WaterMeterAsset 1</title><g id="Layer_2" data-name="Layer 2"><g id="Layer_1-2" data-name="Layer 1"><path class="cls-1" d="M114.8,106.88a7.86,7.86,0,1,0,7.86,7.86A7.87,7.87,0,0,0,114.8,106.88ZM154,75a56,56,0,0,0-65.48-10.1l24.09,36.12A13.86,13.86,0,0,1,125.15,124l6.1,12-8.92,4.52-6.08-12a13.84,13.84,0,0,1-12-22.75L86.71,65.94a56.09,56.09,0,0,0,8.91,101.58h37.47A56.06,56.06,0,0,0,154,75ZM114.8,106.88a7.86,7.86,0,1,0,7.86,7.86A7.87,7.87,0,0,0,114.8,106.88ZM154,75a56,56,0,0,0-65.48-10.1l24.09,36.12A13.86,13.86,0,0,1,125.15,124l6.1,12-8.92,4.52-6.08-12a13.84,13.84,0,0,1-12-22.75L86.71,65.94a56.09,56.09,0,0,0,8.91,101.58h37.47A56.06,56.06,0,0,0,154,75Zm-31.38,39.71a7.86,7.86,0,1,0-7.86,7.86A7.86,7.86,0,0,0,122.66,114.74ZM114.4,44A70.65,70.65,0,0,0,96.26,182.94l1.51-.9.87,1.48a68.7,68.7,0,0,0,6.93,1.22l-1.41-5.33,1.94-.52,1.61,6.08c1.38.14,2.78.23,4.19.27v-8.12h5v8.12c1.39,0,2.77-.13,4.13-.26l1.71-6.09,1.93.54-1.49,5.32a71.1,71.1,0,0,0,7-1.24l.83-1.44,1.49.86A70.64,70.64,0,0,0,114.4,44ZM145,167.52H133.09A56.06,56.06,0,1,0,88.56,64.93l24.09,36.12A13.86,13.86,0,0,1,125.15,124l6.1,12-8.92,4.52-6.08-12a13.84,13.84,0,0,1-12-22.75L86.71,65.94a56.09,56.09,0,0,0,8.91,101.58H83.78a61.15,61.15,0,0,1-30.44-52.85A61.1,61.1,0,0,1,84.69,61.34L81.8,54.79l4,6A61,61,0,0,1,145,167.52ZM114.8,122.6a7.86,7.86,0,1,0-7.86-7.86A7.87,7.87,0,0,0,114.8,122.6Zm0-15.72a7.86,7.86,0,1,0,7.86,7.86A7.87,7.87,0,0,0,114.8,106.88ZM154,75a56,56,0,0,0-65.48-10.1l24.09,36.12A13.86,13.86,0,0,1,125.15,124l6.1,12-8.92,4.52-6.08-12a13.84,13.84,0,0,1-12-22.75L86.71,65.94a56.09,56.09,0,0,0,8.91,101.58h37.47A56.06,56.06,0,0,0,154,75ZM114.8,106.88a7.86,7.86,0,1,0,7.86,7.86A7.87,7.87,0,0,0,114.8,106.88ZM154,75a56,56,0,0,0-65.48-10.1l24.09,36.12A13.86,13.86,0,0,1,125.15,124l6.1,12-8.92,4.52-6.08-12a13.84,13.84,0,0,1-12-22.75L86.71,65.94a56.09,56.09,0,0,0,8.91,101.58h37.47A56.06,56.06,0,0,0,154,75Z"/><rect class="cls-2" x="7.71" y="110.53" width="24.47" height="10"/><rect class="cls-3" x="198.03" y="110.53" width="24.47" height="10"/><rect class="cls-4" x="42.82" y="36.01" width="10" height="24.47" transform="translate(-20.1 47.94) rotate(-45)"/><rect class="cls-5" x="110.11" y="8.13" width="10" height="24.47"/><rect class="cls-6" x="170.16" y="43.24" width="24.47" height="10" transform="translate(19.31 143.1) rotate(-45)"/><rect class="cls-7" x="186.25" y="67.17" width="24.47" height="5" transform="translate(-9.01 104.27) rotate(-28.81)"/><rect class="cls-8" x="21.22" y="76.76" width="5" height="24.47" transform="translate(-68.35 86.96) rotate(-73.81)"/><rect class="cls-9" x="203.99" y="129.83" width="5" height="24.47" transform="translate(12.48 300.75) rotate(-73.81)"/><rect class="cls-10" x="66.75" y="19.91" width="5" height="24.47" transform="translate(-6.92 37.35) rotate(-28.81)"/><rect class="cls-11" x="129.41" y="21.64" width="24.47" height="5" transform="translate(78.95 153.43) rotate(-73.81)"/><rect class="cls-12" x="10.74" y="136.83" width="24.47" height="5" transform="translate(-34.13 10.18) rotate(-14.49)"/><rect class="cls-13" x="195.01" y="89.22" width="24.47" height="5" transform="translate(-16.36 54.77) rotate(-14.49)"/><rect class="cls-14" x="30.63" y="54.97" width="5" height="24.47" transform="translate(-41.59 61.62) rotate(-59.48)"/><rect class="cls-15" x="88.8" y="11.16" width="5" height="24.47" transform="translate(-2.95 23.58) rotate(-14.48)"/><rect class="cls-16" x="151.19" y="31.05" width="24.47" height="5" transform="translate(51.54 157.3) rotate(-59.48)"/><path class="cls-17" d="M114.66,0A114.66,114.66,0,1,0,229.32,114.66,114.79,114.79,0,0,0,114.66,0Zm101,142.12q-.65,2.41-1.43,4.79a104.69,104.69,0,0,1-200-2.74c-.47-1.59-.91-3.2-1.29-4.83a102.31,102.31,0,0,1-2.78-18.81c-.12-1.94-.17-3.9-.17-5.87,0-1.38,0-2.76.09-4.13a103.43,103.43,0,0,1,3.2-22c.42-1.61.87-3.22,1.37-4.8A103.2,103.2,0,0,1,23,64.15q1.21-2.19,2.52-4.32A105.48,105.48,0,0,1,37,44.53c2.23-2.48,4.59-4.84,7.05-7.09A104.5,104.5,0,0,1,62,24.22c1.44-.85,2.9-1.65,4.38-2.42a102.77,102.77,0,0,1,19.85-7.88c1.6-.46,3.22-.87,4.85-1.25a103.26,103.26,0,0,1,19-2.56c1.51-.08,3-.11,4.55-.11,1.83,0,3.64.05,5.45.14a104.08,104.08,0,0,1,22,3.51q2.41.64,4.79,1.43a103.15,103.15,0,0,1,19.47,8.6q2.17,1.23,4.29,2.58a104.81,104.81,0,0,1,15.06,11.61q3.67,3.39,7,7.13a105.15,105.15,0,0,1,12.9,17.9q1.25,2.17,2.38,4.41A103.69,103.69,0,0,1,215.6,87c.44,1.6.85,3.22,1.2,4.85a102.77,102.77,0,0,1,2.43,18.7c.06,1.37.09,2.75.09,4.13,0,2,0,3.93-.17,5.87A103.86,103.86,0,0,1,215.66,142.12Z"/></g></g></svg>